<svg width="400" height="400" viewBox="0 0 400 400" fill="none" xmlns="http://www.w3.org/2000/svg">
<circle cx="200" cy="200" r="200" fill="black"/>
<g clip-path="url(#clip0)">
<path fill-rule="evenodd" clip-rule="evenodd" d="M164.293 241.652C185.778 241.652 203.195 224.283 203.195 202.857C203.195 181.431 185.778 164.062 164.293 164.062C142.808 164.062 125.391 181.431 125.391 202.857C125.391 224.283 142.808 241.652 164.293 241.652ZM164.293 228.936C178.735 228.936 190.443 217.26 190.443 202.857C190.443 188.454 178.735 176.778 164.293 176.778C149.85 176.778 138.142 188.454 138.142 202.857C138.142 217.26 149.85 228.936 164.293 228.936Z" fill="white"/>
<path fill-rule="evenodd" clip-rule="evenodd" d="M332.296 204.029C331.948 225.156 314.662 242.823 293.394 242.823C271.909 242.823 254.492 225.454 254.492 204.029C254.492 182.603 271.909 165.234 293.394 165.234C303.463 165.234 312.637 169.049 319.545 175.307V171.592V171.485C319.603 168.023 322.434 165.234 325.92 165.234C329.406 165.234 332.237 168.023 332.296 171.485V171.592V204.029ZM319.545 204.029C319.545 218.432 307.837 230.107 293.394 230.107C278.951 230.107 267.243 218.432 267.243 204.029C267.243 189.626 278.951 177.95 293.394 177.95C307.837 177.95 319.545 189.626 319.545 204.029Z" fill="white"/>
<path fill-rule="evenodd" clip-rule="evenodd" d="M332.199 263.214C331.161 283.716 314.163 300.022 293.346 300.022C272.53 300.022 255.532 283.716 254.495 263.214C254.495 263.214 254.489 262.181 254.495 262.068L254.555 261.227C255.112 258.282 257.705 256.055 260.82 256.055C263.935 256.055 266.528 258.282 267.085 261.227C267.085 275.63 278.904 287.306 293.346 287.306C307.79 287.306 319.607 275.63 319.607 261.227C320.165 258.282 322.758 256.055 325.873 256.055C328.987 256.055 331.58 258.282 332.138 261.227C332.138 261.499 332.199 263.214 332.199 263.214Z" fill="white"/>
<path d="M250.173 170.616C250.173 167.547 247.992 164.986 245.092 164.389C244.803 164.349 244.097 164.258 243.797 164.258C243.622 164.258 243.252 164.258 243.257 164.258H242.068C233.923 164.258 226.443 167.092 220.564 171.826V171.586H220.563C220.505 168.124 217.673 165.336 214.188 165.336C210.703 165.336 207.871 168.124 207.814 171.586H207.813V235.92C207.812 235.956 207.813 235.884 207.813 235.92C207.813 239.431 210.667 242.278 214.188 242.278C217.709 242.278 220.564 239.431 220.564 235.92C220.564 235.884 220.565 235.956 220.564 235.92V198.419C220.564 186.575 230.192 176.974 242.068 176.974C242.394 176.974 242.726 176.959 243.048 176.974H243.797C247.318 176.974 250.173 174.127 250.173 170.616Z" fill="white"/>
<path fill-rule="evenodd" clip-rule="evenodd" d="M80.5246 173.075V133.311V133.203H80.5255C80.5832 129.742 83.4152 126.953 86.9002 126.953C90.3852 126.953 93.2173 129.742 93.275 133.203H93.2758V133.311V173.075H99.5434V173.076C99.5794 173.076 99.6153 173.075 99.6514 173.075C103.172 173.075 106.027 175.922 106.027 179.433C106.027 182.945 103.172 185.791 99.6514 185.791C99.6153 185.791 99.5794 185.791 99.5434 185.791V185.791H93.2758V207.667C93.2758 219.511 102.687 229.112 114.564 229.112C118.085 229.112 120.939 231.959 120.939 235.47C120.939 238.981 118.085 241.828 114.564 241.828C95.6452 241.828 80.5246 226.534 80.5246 207.667V185.791H74.149H74.041V185.791C70.5696 185.733 67.7734 182.909 67.7734 179.433C67.7734 175.958 70.5696 173.134 74.041 173.076V173.075H74.149H80.5246Z" fill="white"/>
</g>
<defs>
<clipPath id="clip0">
<rect x="67.7734" y="126.953" width="264.533" height="173.067" fill="white"/>
</clipPath>
</defs>
</svg>
